# xmcd
#
# Track frame offsets: 
#        150
#        16700
#        35450
#        49475
#        67175
#        80325
#        92150
#        106350
#        120605
#        131310
#        142287
#        155235
#
# Disc length: 2206 seconds
#
# Revision: 1
# Processed by: cddbd v1.4PL0 Copyright (c) Steve Scherf et al.
# Submitted via: ExactAudioCopy v0.90b4
#
DISCID=a9089c0c
DTITLE=Don Williams - 36 All-Time Greatest Hits - Disc 3
DYEAR=1900
DGENRE=Country
TTITLE0=That's The Thing About Love
TTITLE1=Maggie's Dream
TTITLE2=Walkin A Broken Heart
TTITLE3=It's Time For Love
TTITLE4=Where Are You
TTITLE5=The Tie That Binds
TTITLE6=Come Early Morning
TTITLE7=Down The Road I Go
TTITLE8=Louisiana Saturday Night
TTITLE9=(The Flood) Wish I Was In Nashville
TTITLE10=Reason To Be
TTITLE11=In The Morning
EXTD=
EXTT0=
EXTT1=
EXTT2=
EXTT3=
EXTT4=
EXTT5=
EXTT6=
EXTT7=
EXTT8=
EXTT9=
EXTT10=
EXTT11=
PLAYORDER=
